<?xml version="1.0" encoding="iso-8859-1"?>
<!-- Generator: Adobe Illustrator 19.1.0, SVG Export Plug-In . SVG Version: 6.00 Build 0)  -->
<svg version="1.1" id="Capa_1" xmlns="http://www.w3.org/2000/svg" xmlns:xlink="http://www.w3.org/1999/xlink" x="0px" y="0px"
	 viewBox="0 0 244.899 244.899" style="enable-background:new 0 0 244.899 244.899;" xml:space="preserve">
<g>
	<g>
		<g>
			<path style="fill:#010002;" d="M174.754,216.878V0H70.145v216.878H35.949v28.021h173v-28.021H174.754z M162.424,99.558v31.206
				h-31.186V99.558H162.424z M131.472,76.989V45.793h31.196v31.196H131.472z M162.424,152.864v31.177h-31.186v-31.177H162.424z
				 M82.719,12.584h80.956v16.082H82.719V12.584z M82.455,130.764V99.558h31.186v31.206H82.455z M113.651,152.864v31.177H82.455
				v-31.177H113.651z M82.719,45.793h31.167v31.196H82.719C82.719,76.989,82.719,45.793,82.719,45.793z M94.287,200.64h57.312v0.01
				v16.228H94.287V200.64z"/>
		</g>
	</g>
</g>
<g>
</g>
<g>
</g>
<g>
</g>
<g>
</g>
<g>
</g>
<g>
</g>
<g>
</g>
<g>
</g>
<g>
</g>
<g>
</g>
<g>
</g>
<g>
</g>
<g>
</g>
<g>
</g>
<g>
</g>
</svg>
