<?xml version="1.0" encoding="iso-8859-1"?>
<!-- Generator: Adobe Illustrator 19.1.0, SVG Export Plug-In . SVG Version: 6.00 Build 0)  -->
<svg version="1.1" id="Capa_1" xmlns="http://www.w3.org/2000/svg" xmlns:xlink="http://www.w3.org/1999/xlink" x="0px" y="0px"
	 viewBox="0 0 212.521 212.521" style="enable-background:new 0 0 212.521 212.521;" xml:space="preserve">
<g>
	<g>
		<g>
			<path style="fill:#010002;" d="M113.627,206.619l-0.293-53.912l18.739-0.107l-12.985,17.049l37.713-0.195l0.195,35.339
				l6.204-0.029l-0.195-35.348l37.684-0.205l-24.885-29.076l13.737-0.078l-22.95-26.829l14.216-0.068L161.94,91.117l8.735-0.039
				l-14.489-16.951L143.367,90.98l-24.259-28.343l22.764-0.137l-30.219-35.3l14.001-0.088L102.401,0l-20.83,27.376l14.177-0.068
				L68.606,62.91l22.364-0.107l-28.734,37.762l-7.543-8.822l8.725-0.049L48.929,74.742L35.915,91.84l8.852-0.049l-16.912,22.247
				l13.962-0.078L21.24,140.983l12.945-0.059l-22.354,29.33l37.713-0.205l0.195,35.329l6.214-0.02l-0.195-35.339l37.664-0.205
				l-14.46-16.902l24.435-0.137l0.293,53.922l-59.364,0.313l0.039,5.51l128.644-0.703l-0.02-5.501
				C172.961,206.326,113.627,206.619,113.627,206.619z M140.427,113.402l8.647-0.039l-4.084,5.374L140.427,113.402z M152.024,91.234
				l-3.976,5.237l-4.445-5.188C143.592,91.273,152.024,91.234,152.024,91.234z M141.013,105.723l-3.371,4.436l-3.762-4.387
				L141.013,105.723z M78.728,106.055l-5.549,7.298l-6.185-7.22L78.728,106.055z M59.354,113.861l13.493-0.098l-6.39,8.393
				L59.354,113.861z"/>
		</g>
	</g>
</g>
<g>
</g>
<g>
</g>
<g>
</g>
<g>
</g>
<g>
</g>
<g>
</g>
<g>
</g>
<g>
</g>
<g>
</g>
<g>
</g>
<g>
</g>
<g>
</g>
<g>
</g>
<g>
</g>
<g>
</g>
</svg>
