<?xml version="1.0" encoding="iso-8859-1"?>
<!-- Generator: Adobe Illustrator 19.0.0, SVG Export Plug-In . SVG Version: 6.00 Build 0)  -->
<svg xmlns="http://www.w3.org/2000/svg" xmlns:xlink="http://www.w3.org/1999/xlink" version="1.1" id="Capa_1" x="0px" y="0px" viewBox="0 0 487.116 487.116" style="enable-background:new 0 0 487.116 487.116;" xml:space="preserve" width="512px" height="512px">
<g>
	<path d="M276.957,119.935l22.301-22.305l-14.655-14.655l-22.292,22.296c-19.323-16.064-44.155-25.728-71.247-25.728   c-27.063,0-51.873,9.643-71.186,25.676L97.633,82.974L82.977,97.629l22.245,22.245c-16.035,19.314-25.679,44.125-25.679,71.19   c0,27.093,9.665,51.927,25.73,71.25l-22.296,22.296l14.656,14.656l22.306-22.305c19.305,16.003,44.091,25.625,71.125,25.625   c27.065,0,51.875-9.644,71.19-25.679l22.359,22.359l14.656-14.656l-22.36-22.359c16.033-19.314,25.676-44.123,25.676-71.186   C302.585,164.027,292.962,139.24,276.957,119.935z M240.778,226.119l-14.655,14.656l21.395,21.395   c-15.499,12.322-35.115,19.687-56.454,19.687c-21.308,0-40.899-7.344-56.388-19.634l21.448-21.448l-14.656-14.656l-21.461,21.46   c-12.351-15.509-19.736-35.148-19.736-56.516c0-21.339,7.365-40.955,19.687-56.454l21.51,21.51l14.656-14.656l-21.51-21.51   c15.498-12.32,35.113-19.684,56.45-19.684c21.366,0,41.005,7.384,56.514,19.735l-21.455,21.458l14.655,14.656l21.443-21.447   c12.291,15.489,19.636,35.081,19.636,56.391c0,21.337-7.364,40.952-19.684,56.45L240.778,226.119z" fill="#006DF0"/>
	<path d="M486.958,406.379c-1.418-21.761-12.135-41.872-29.412-55.181l-95.971-73.853c13.141-25.919,20.554-55.233,20.554-86.281   C382.128,85.542,296.586,0,191.064,0C85.542,0,0,85.542,0,191.064s85.542,191.064,191.064,191.064   c31.047,0,60.361-7.412,86.279-20.553l73.858,95.967c14.463,18.795,36.386,29.574,60.131,29.574   c20.222,0,39.25-7.884,53.571-22.206C480.328,449.475,488.364,428.15,486.958,406.379z M20.729,191.064   c0-94.074,76.262-170.336,170.336-170.336S361.4,96.99,361.4,191.064s-76.262,170.336-170.335,170.336   S20.729,285.138,20.729,191.064z M450.248,450.254c-10.405,10.405-24.23,16.133-38.916,16.133   c-17.267,0-33.198-7.833-43.714-21.497l-72.63-93.483c22.461-14.588,41.662-33.765,56.279-56.206l93.627,72.423   c12.56,9.666,20.353,24.281,21.376,40.101C467.292,423.534,461.451,439.039,450.248,450.254z" fill="#006DF0"/>
	<rect x="183.431" y="180.755" width="15.374" height="20.728" fill="#006DF0"/>
</g>
<g>
</g>
<g>
</g>
<g>
</g>
<g>
</g>
<g>
</g>
<g>
</g>
<g>
</g>
<g>
</g>
<g>
</g>
<g>
</g>
<g>
</g>
<g>
</g>
<g>
</g>
<g>
</g>
<g>
</g>
</svg>
